PathFileType	4	(X/Y/Z)	62_2_102_p1_0-593.trc
DataRate	CameraRate	NumFrames	NumMarkers	Units	OrigDataRate	OrigDataStartFrame	OrigNumFrames
60.0	60.0	6	27	m	60.0	148	594
Frame#	Time	RHip			RKnee			RAnkle			RBigToe			RSmallToe			RHeel			LHip			LKnee			LAnkle			LBigToe			LSmallToe			LHeel			Neck			Head			Nose			RShoulder			RElbow			RWrist			RThumb			RIndex			RPinky			LShoulder			LElbow			LWrist			LThumb			LIndex			LPinky			
		X1	Y1	Z1	X2	Y2	Z2	X3	Y3	Z3	X4	Y4	Z4	X5	Y5	Z5	X6	Y6	Z6	X7	Y7	Z7	X8	Y8	Z8	X9	Y9	Z9	X10	Y10	Z10	X11	Y11	Z11	X12	Y12	Z12	X13	Y13	Z13	X14	Y14	Z14	X15	Y15	Z15	X16	Y16	Z16	X17	Y17	Z17	X18	Y18	Z18	X19	Y19	Z19	X20	Y20	Z20	X21	Y21	Z21	X22	Y22	Z22	X23	Y23	Z23	X24	Y24	Z24	X25	Y25	Z25	X26	Y26	Z26	X27	Y27	Z27	
148	2.466666666666667	0.2801087326965639	0.46510421304300276	0.25054151381158674	0.2846147580593379	0.7505243289319229	0.4963843684411412	0.30210108797931134	1.0441128255433623	0.7709611751912752	0.28449069468275157	0.917529668819121	0.9332586212679945	0.3478266805554567	0.9557956683693272	0.9106054687272102	0.2959927172119644	1.0881495777247683	0.8170764743134095	0.08564581951063018	0.512572008386415	0.2137452994045276	0.12422415937065676	0.7980035251769081	0.47229086435084083	0.157098378169502	1.0397113671048779	0.7820507367804185	0.12717209816536149	0.9228202916358119	0.9332861222180984	0.07928252102068323	0.9838814627754646	0.8936920055487687	0.18792991275292023	1.1279075036712487	0.8130939282615919	0.2293047239843988	0.08371122748844244	-0.17088650021790291	0.20611875732113338	-0.11782268365492513	-0.3252640058475176	0.19714315350336675	-0.10000356999362564	-0.18446652121955548	0.3786438428594314	0.09556327649513101	-0.04075669000819582	0.4127924070584337	0.2882766520193678	0.17177610170147575	0.36300943272834296	0.468988168611148	0.38586776912763615	0.28990078792020885	0.5003591305722819	0.4841820342976435	0.3086904614370738	0.5098032425688729	0.5000325335948954	0.34652626702025713	0.5232789852496732	0.48218085791463233	0.060819788213822105	0.1524556458220598	-0.12408809779401439	-0.016599269421520776	0.3819654129656803	0.0561007440613497	-0.037058314279079824	0.5021483688213326	0.28105287244141713	0.014608141543158754	0.5427811765550287	0.3710570876048359	-0.014933762304160644	0.5334919855969656	0.3877156773463206	-0.05572842655298059	0.5698493978681862	0.36480964817864936
149	2.4833333333333334	0.2800340946501314	0.46503128966795876	0.2506214564899329	0.2847394069054964	0.7521475997489699	0.4998108791170523	0.30288291583159616	1.0470282046339952	0.7874591395340006	0.28076570716077576	0.9311825258028248	0.9386265860501164	0.34330626716085144	0.9672497532227075	0.9124383500813833	0.29722240346216267	1.093121463935541	0.8246774007728168	0.08563342529602863	0.5125419043440609	0.21377831371727302	0.12431254520114929	0.7997794972237391	0.47589514940577066	0.15613054105451776	1.04337375978085	0.7860960472149298	0.127407387205856	0.9229685048667564	0.9336069897859809	0.07920228644561753	0.9841520849485101	0.894105680477774	0.1893122821428323	1.131974246072686	0.8158244677524242	0.22925317502672085	0.08358952075327108	-0.17079999781535254	0.20612244135974528	-0.1179360731693012	-0.3252563335549442	0.19691047782827126	-0.09862296071592895	-0.1817212271396518	0.3779276098317651	0.09288521786330584	-0.043147353167914806	0.4065589475660292	0.27902524553899477	0.17559458003008804	0.35665918840384514	0.4586059039903451	0.38901760581398803	0.2900671865699809	0.5004714659368945	0.4843029652820341	0.31285512763297646	0.5105397954210644	0.5001428918411706	0.35245080456782757	0.5329756584569595	0.4795017008063161	0.06079870351329591	0.15234232457589145	-0.12413529037461396	-0.016594312618188597	0.38187218856593913	0.056122741582849654	-0.03696801688882824	0.5019056915701987	0.281017918340452	0.014405393083724717	0.5423274937816948	0.37107255382203835	-0.017501395321887728	0.5109119155755841	0.39873138503693295	-0.05565604498240735	0.5706977755126553	0.3674190968805629
150	2.5	0.28003042638287473	0.46500777017352984	0.2506863533422308	0.2848078443662814	0.7522425741266415	0.49987954035560433	0.3029464644690685	1.0471916389731701	0.7876477384669894	0.2857525138080253	0.9337622148639312	0.9386819869696185	0.34895839489973446	0.9704989701651926	0.912525974755929	0.29733751397010494	1.0933186689153798	0.8247724008354502	0.08564161355334726	0.5127086762080459	0.21381188841025991	0.12421505933956484	0.7996354677504977	0.476010014375121	0.1561526737978704	1.0434033423213567	0.7861764196272364	0.12174770067535351	0.9101972394491241	0.9346230285983617	0.079072318714428	0.9828478015293	0.8905679374337083	0.1895908687015014	1.132252518841521	0.8157781539695357	0.22923441808921796	0.08353705913632521	-0.1708399487763184	0.20599651445699743	-0.11803811676663524	-0.3251919338183317	0.19700234135743566	-0.10014104403791997	-0.1845677306913858	0.37785837234829417	0.09281443700863898	-0.04316564748550537	0.4067034147496582	0.28104780531794815	0.17893307776492084	0.3520385127612331	0.45769571954840976	0.3892182500873172	0.29476867520845074	0.5015498819036136	0.48421634271975733	0.31299868694403354	0.5105836863602727	0.5002960089251854	0.35249076636071935	0.533146184592319	0.47944301132442996	0.06076004705952837	0.15245337574975357	-0.12419560152927636	-0.016655022362155825	0.3818817578462224	0.0560929829197027	-0.03709371297571617	0.5016315103071791	0.28102484995456883	0.010212841647763003	0.5403763332519272	0.37152008412631443	-0.022193335981090263	0.5074459808356192	0.39582111751013616	-0.06012172803409576	0.5660799099608236	0.36423010587474813
151	2.5166666666666666	0.28004642961766013	0.46497655579546815	0.250785058967176	0.28475890899846035	0.7505776622184089	0.4963656730322196	0.3043061061719254	1.0514189816796484	0.7916088966657144	0.28580791915840215	0.9338803170486757	0.9388967759425726	0.34389066115974315	0.961717613324332	0.9169265483558094	0.2988023518849851	1.0976485448753728	0.8284464683517679	0.08566005491450006	0.5126206143105142	0.21392252006928375	0.12417773890307061	0.7994401781680681	0.47602847707176243	0.15615893899289407	1.0436294763473366	0.7863944993076034	0.12175200792615488	0.910503385943188	0.9347363610729347	0.07903002138398602	0.9842654865312116	0.894421651200988	0.1961819875002479	1.146166123249903	0.8142106425412688	0.22927761244137762	0.08356310467192002	-0.17086693422612384	0.20599399350483014	-0.11805710128382539	-0.32523417581296177	0.19681424427093236	-0.10184850781879046	-0.18719819605876867	0.37401278716796327	0.09258362312284173	-0.04300656601439174	0.4066323835044476	0.2808947314332997	0.17906459446399997	0.3519122162186121	0.45875890241006556	0.39291923853641514	0.2949755014885736	0.5029622810208556	0.4874355841274003	0.3168289000195271	0.5109908514521618	0.5004624580122502	0.34648226925196574	0.5226810570945105	0.4824260533774714	0.06076101724472516	0.15266711446447787	-0.1242051306678049	-0.01671913719054824	0.3818917813804055	0.05616956647477249	-0.03714767184065912	0.5020719507041926	0.28102984112889945	0.009927563264387963	0.5402058842615557	0.3715676310474554	-0.022216136231860074	0.5075461830171641	0.3957223910735781	-0.059212858751292036	0.5685575326646095	0.36505586620249436
152	2.533333333333333	0.2800227554763257	0.46478585025556435	0.25074294382016993	0.2848354766442232	0.7503900608471125	0.4962961098365665	0.30556964949973386	1.0553509513868589	0.7949348527028451	0.2808269011192171	0.931267117575254	0.9388189729237983	0.35027475604489816	0.9551723514185245	0.9181020360015294	0.2916784266887205	1.0825883315951164	0.8262241965249658	0.08566470099184847	0.5124222922600608	0.2140889399113898	0.1242766192027791	0.7995712279908432	0.47616014952596947	0.15743096623422403	1.0477281438147361	0.7901120081322686	0.12173589852800344	0.9103778365870281	0.9345721237364846	0.07913533225151541	0.984251207523019	0.8942567528392075	0.1971866986971657	1.1497864791857624	0.8173081088704376	0.2293001101049523	0.08357412857724515	-0.17089586782172028	0.20599326744532467	-0.11809277360018498	-0.32525719235453504	0.19678991467005041	-0.1018922574202276	-0.1871817948318963	0.3739920055629086	0.09261569471986199	-0.043036915958494036	0.40657625183409557	0.2807888454328662	0.17915705789474265	0.3520887904589483	0.4589538816069112	0.3928488843572134	0.2991372701868424	0.5049876802516469	0.4873441153154308	0.3170004248028668	0.5108991585422858	0.500548526924994	0.34674371364535106	0.5231754310860364	0.48251295438370667	0.06077817300357139	0.15256407579695058	-0.12420713211053269	-0.01666353174168807	0.3819709833537434	0.05602558140331342	-0.03722158754046393	0.5024130281966381	0.28105165215674177	0.004683810599846109	0.5305853218848813	0.37831864692546874	-0.02421973636022536	0.5209364208230028	0.3915918969585709	-0.056488698339686776	0.5719078136551824	0.3683403484272015
153	2.55	0.28001370686296584	0.4648393352631961	0.2507812387183498	0.2848661141850038	0.7503585292870268	0.49634216829001787	0.3041673440085108	1.0497446880307222	0.787388670984524	0.2819122071527349	0.9145646926661478	0.9412163125386231	0.3488852510015189	0.9515312672484133	0.915600036395225	0.2968960849660209	1.0917980644972982	0.8214154503567881	0.08567950850744557	0.5144101435171771	0.21779650188524685	0.12403010739595856	0.799970588637279	0.47631110102770546	0.15740959248139408	1.0476289652635675	0.7901286544272235	0.12747546208597635	0.9233270880181216	0.9336863700189748	0.07919234768808789	0.9842061529801432	0.894329696562412	0.19084157245395053	1.1354764689470789	0.8185632819022145	0.22933499144071343	0.08361878554798807	-0.17102127838790573	0.20516084048250294	-0.10806783443738537	-0.33246257599755286	0.1968097427768571	-0.10189980638401486	-0.1872121736960018	0.3739839606221428	0.09257329985490022	-0.04306925361476042	0.4066531572081424	0.28086223903100227	0.17912078952891686	0.35673610990947385	0.4598174956530189	0.3927437516510786	0.29926114842557405	0.5064293149329604	0.49054772183079265	0.3169963375020662	0.5107940152210103	0.5006057200057784	0.3466731344913087	0.5228853298971292	0.48262443770803676	0.060758522549029303	0.15260300528961052	-0.12423361410573576	-0.01673964928579301	0.381797235157261	0.056127072675041315	-0.037194691529817435	0.5021832528837081	0.2810893016672384	0.004671494485010969	0.5305395439565392	0.3783646968561196	-0.022287865222604435	0.5076170756123816	0.39596321830877884	-0.056500110254468335	0.5717346832710969	0.3683869110475813
